<?xml version="1.0" encoding="UTF-8"?>
<svg
    width="12px"
    height="10px"
    viewBox="0 0 12 10"
    version="1.1"
    xmlns="http://www.w3.org/2000/svg"
    xmlns:xlink="http://www.w3.org/1999/xlink">
  <title>Shape</title>
  <g
      id="Page-1"
      stroke="none"
      stroke-width="1"
      fill="none"
      fill-rule="evenodd">
    <g
        id="1a-Homepage"
        transform="translate(-276.000000, -1413.000000)"
        fill="#0303F1"
        fill-rule="nonzero">
      <g
          id="Group-12"
          transform="translate(-120.000000, 1081.000000)">
        <g
            id="Group-11"
            transform="translate(310.000000, 0.000000)">
          <g
              id="Group-10"
              transform="translate(86.000000, 332.000000)">
            <path
                d="M11.9240459,1.54337832 L10.4403418,0.0769327632 C10.3904931,0.0276802509 10.3228078,0 10.2522218,0 C10.1816357,0 10.1139505,0.0276802509 10.0641017,0.0769327632 L3.79768374,6.25695334 C3.74783497,6.30620585 3.68014975,6.3338861 3.60956367,6.3338861 C3.53897758,6.3338861 3.47129236,6.30620585 3.42144359,6.25695334 L1.93773948,4.79050778 C1.88789071,4.74125526 1.82020549,4.71357501 1.7496194,4.71357501 C1.67903331,4.71357501 1.6113481,4.74125526 1.56149932,4.79050778 L0.0777952122,6.25695334 C-0.0259317374,6.35921169 -0.0259317374,6.52497249 0.0777952122,6.62723084 L3.42144359,9.92306724 C3.47129236,9.97231975 3.53897758,10 3.60956367,10 C3.68014975,10 3.74783497,9.97231975 3.79768374,9.92306724 L11.9240459,1.90998971 C12.025318,1.8081651 12.025318,1.64520294 11.9240459,1.54337832 Z"
                id="Shape"></path>
          </g>
        </g>
      </g>
    </g>
  </g>
</svg>
