<?xml version="1.0" encoding="UTF-8"?>
<svg width="24px" height="24px" viewBox="0 0 24 24" version="1.1" xmlns="http://www.w3.org/2000/svg" xmlns:xlink="http://www.w3.org/1999/xlink">
    <title>icon/download</title>
    <defs>
        <filter id="filter-1">
            <feColorMatrix in="SourceGraphic" type="matrix" values="0 0 0 0 0.011765 0 0 0 0 0.011765 0 0 0 0 0.945098 0 0 0 1.000000 0"></feColorMatrix>
        </filter>
    </defs>
    <g id="Symbols" stroke="none" stroke-width="1" fill="none" fill-rule="evenodd">
        <g id="File" transform="translate(-496.000000, -20.000000)">
            <g id="Group" transform="translate(496.000000, 20.000000)" filter="url(#filter-1)">
                <g id="download-thick-bottom" fill="#000000" fill-rule="nonzero">
                    <path d="M8.616,1.741 C8.61655156,0.938206548 9.26720655,0.287551559 10.07,0.287 L13.462,0.287 C14.2644029,0.288102771 14.9144493,0.938596531 14.915,1.741 L14.915,9.969 C14.915,10.1070712 15.0269288,10.219 15.165,10.219 L18.065,10.219 C18.5563177,10.1808906 19.0163389,10.4633423 19.2046454,10.9187389 C19.3929519,11.3741355 19.2667517,11.8989897 18.892,12.219 L12.792,18.319 C12.2166459,18.8680808 11.3113541,18.8680808 10.736,18.319 L4.636,12.219 C4.25984477,11.899552 4.13270496,11.3739284 4.32128048,10.9178812 C4.50985601,10.461834 4.97108574,10.1795013 5.463,10.219 L8.363,10.219 C8.42938566,10.2192671 8.49312947,10.1930137 8.5400716,10.1460716 C8.58701373,10.0991295 8.61326715,10.0353857 8.613,9.969 L8.616,1.741 Z" id="Shape"></path>
                    <path d="M0,19.677 C0.00220495584,21.904555 1.807445,23.709795 4.035,23.712 L19.965,23.712 C22.192555,23.709795 23.997795,21.904555 24,19.677 L24,17.8 C23.9810614,17.1373505 23.4384201,16.6099964 22.7755,16.6099964 C22.1125799,16.6099964 21.5699386,17.1373505 21.551,17.8 L21.551,19.674 C21.5498981,20.5494668 20.8404668,21.2588981 19.965,21.26 L4.035,21.26 C3.15953322,21.2588981 2.45010191,20.5494668 2.449,19.674 L2.449,17.8 C2.43006136,17.1373505 1.8874201,16.6099964 1.2245,16.6099964 C0.561579904,16.6099964 0.0189386414,17.1373505 0,17.8 L0,19.677 Z" id="Shape"></path>
                </g>
            </g>
        </g>
    </g>
</svg>