<?xml version="1.0" encoding="UTF-8"?>
<svg width="120px" height="120px" viewBox="0 0 120 120" version="1.1" xmlns="http://www.w3.org/2000/svg" xmlns:xlink="http://www.w3.org/1999/xlink">
    <title>Group</title>
    <defs>
        <filter id="filter-1">
            <feColorMatrix in="SourceGraphic" type="matrix" values="0 0 0 0 0.000000 0 0 0 0 0.000000 0 0 0 0 0.000000 0 0 0 0.100000 0"></feColorMatrix>
        </filter>
    </defs>
    <g id="Page-1" stroke="none" stroke-width="1" fill="none" fill-rule="evenodd">
        <g id="5-Create-Account" transform="translate(-660.000000, -1489.000000)">
            <g id="Group-2" transform="translate(423.000000, 1441.000000)">
                <g id="Group" transform="translate(103.000000, 48.000000)" filter="url(#filter-1)">
                    <g transform="translate(134.000000, 0.000000)" id="design-tool-shape" fill="#000000" fill-rule="nonzero">
                        <path d="M69,44.825 C69.1128415,45.2830305 69.4739239,45.6385259 69.9336582,45.744212 C70.3933924,45.849898 70.8734682,45.6877722 71.175,45.325 C73.6577087,42.2973541 75.0099747,38.5004033 75.0000548,34.585 C74.988979,25.1537839 67.3462161,17.511021 57.915,17.5 C54.0059336,17.5027048 50.2189057,18.8616523 47.2,21.345 C46.8372278,21.6465318 46.675102,22.1266076 46.780788,22.5863418 C46.8864741,23.0460761 47.2419695,23.4071585 47.7,23.52 C58.1025732,26.295547 66.2268947,34.4217756 69,44.825 L69,44.825 Z" id="Shape"></path>
                        <path d="M88.75,42.5 L98.75,42.5 C100.821068,42.5 102.5,40.8210678 102.5,38.75 C102.5,36.6789322 100.821068,35 98.75,35 L88.75,35 C86.6789322,35 85,36.6789322 85,38.75 C85,40.8210678 86.6789322,42.5 88.75,42.5 Z" id="Shape"></path>
                        <path d="M88.75,57.5 L93.75,57.5 C95.8210678,57.5 97.5,55.8210678 97.5,53.75 C97.5,51.6789322 95.8210678,50 93.75,50 L88.75,50 C86.6789322,50 85,51.6789322 85,53.75 C85,55.8210678 86.6789322,57.5 88.75,57.5 Z" id="Shape"></path>
                        <path d="M38.75,96.25 L21.25,96.25 C19.1789322,96.25 17.5,97.9289322 17.5,100 C17.5,102.071068 19.1789322,103.75 21.25,103.75 L38.75,103.75 C40.8210678,103.75 42.5,102.071068 42.5,100 C42.5,97.9289322 40.8210678,96.25 38.75,96.25 Z" id="Shape"></path>
                        <path d="M88.75,27.5 L98.75,27.5 C100.821068,27.5 102.5,25.8210678 102.5,23.75 C102.5,21.6789322 100.821068,20 98.75,20 L88.75,20 C86.6789322,20 85,21.6789322 85,23.75 C85,25.8210678 86.6789322,27.5 88.75,27.5 Z" id="Shape"></path>
                        <path d="M120,9.9 C119.994488,4.43466583 115.565334,0.00551219197 110.1,-1.10023102e-15 L9.9,-1.10023102e-15 C4.43466583,0.00551219197 0.00551219197,4.43466583 -1.10023102e-15,9.9 L-1.10023102e-15,110.1 C0.00551219197,115.565334 4.43466583,119.994488 9.9,120 L110.1,120 C115.565334,119.994488 119.994488,115.565334 120,110.1 L120,9.9 Z M110,107.5 C110,108.880712 108.880712,110 107.5,110 L12.5,110.1 C11.1192881,110.1 10,108.980712 10,107.6 L9.9,12.5 C9.9,11.1192881 11.0192881,10 12.4,10 L107.5,9.9 C108.880712,9.9 110,11.0192881 110,12.4 L110,107.5 Z" id="Shape"></path>
                        <circle id="Oval" cx="40" cy="52.5" r="22.5"></circle>
                        <path d="M70.885,76.8149957 C71.1188201,77.0501862 71.2500448,77.3683611 71.25,77.7 L71.25,96.25 C71.255506,99.6994965 74.0505035,102.494494 77.5,102.5 L96.25,102.5 C99.6994965,102.494494 102.494494,99.6994965 102.5,96.25 L102.5,78.75 C102.494494,75.3005035 99.6994965,72.505506 96.25,72.5 L77.69,72.5 C77.3583611,72.5000448 77.0401862,72.3688201 76.805,72.135 L69.525,64.85 C68.0278262,63.4699942 65.7221738,63.4699942 64.225,64.85 C62.7721325,66.29951 62.7587449,68.6490278 64.195,70.115 L64.225,70.15 L70.885,76.8149957 Z M93.749998,79.999998 C94.4403559,79.999998 95,80.5596441 95,81.25 L95,93.75 C95,94.4403559 94.4403559,94.999998 93.749998,94.999998 L80,94.999998 C79.3096441,94.999998 78.749998,94.4403559 78.749998,93.75 L78.749998,87.695 C78.7490942,87.1887278 79.0536572,86.7319038 79.5213418,86.5380392 C79.9890264,86.3441746 80.5274645,86.4515579 80.885,86.81 L84.225,90.15 C85.7025488,91.5267943 88.0050486,91.4861694 89.433109,90.058109 C90.8611694,88.6300486 90.9017943,86.3275488 89.525,84.85 L86.81,82.135 C86.4515579,81.7774645 86.3441746,81.2390264 86.5380392,80.7713418 C86.7319038,80.3036572 87.1887278,79.9990942 87.695,79.999998 L93.749998,79.999998 Z" id="Shape"></path>
                    </g>
                </g>
            </g>
        </g>
    </g>
</svg>