<?xml version="1.0" encoding="UTF-8"?>
<svg width="22px" height="24px" viewBox="0 0 22 24" version="1.1" xmlns="http://www.w3.org/2000/svg" xmlns:xlink="http://www.w3.org/1999/xlink">
    <title>icon/trash</title>
    <defs>
        <filter id="filter-1">
            <feColorMatrix in="SourceGraphic" type="matrix" values="0 0 0 0 0.011765 0 0 0 0 0.011765 0 0 0 0 0.945098 0 0 0 1.000000 0"></feColorMatrix>
        </filter>
    </defs>
    <g id="Symbols" stroke="none" stroke-width="1" fill="none" fill-rule="evenodd">
        <g id="File" transform="translate(-551.000000, -20.000000)">
            <g id="Group" transform="translate(550.000000, 20.000000)" filter="url(#filter-1)">
                <g id="bin-1" fill="#000000" fill-rule="nonzero">
                    <path d="M19.452,7.49999587 L4.547,7.49999587 C4.40621372,7.49942855 4.27171041,7.55823801 4.17653378,7.66198053 C4.08135715,7.76572306 4.03432797,7.90478402 4.047,8.045 L5.334,22.181 C5.42762345,23.2112682 6.29148665,23.9999959 7.326,23.9999959 L16.673,23.9999959 C17.7075134,23.9999959 18.5713765,23.2112682 18.665,22.181 L19.95,8.045 C19.9625215,7.90520479 19.9157096,7.76658365 19.821,7.663 C19.7263484,7.55925794 19.5924326,7.49999587 19.452,7.49999587 Z M10.252,20.5 C10.252,20.9142136 9.91621356,21.25 9.502,21.25 C9.08778644,21.25 8.752,20.9142136 8.752,20.5 L8.752,11.5 C8.752,11.0857864 9.08778644,10.75 9.502,10.75 C9.91621356,10.75 10.252,11.0857864 10.252,11.5 L10.252,20.5 Z M15.252,20.5 C15.252,20.9142136 14.9162136,21.25 14.502,21.25 C14.0877864,21.25 13.752,20.9142136 13.752,20.5 L13.752,11.5 C13.752,11.0857864 14.0877864,10.75 14.502,10.75 C14.9162136,10.75 15.252,11.0857864 15.252,11.5 L15.252,20.5 Z" id="Shape"></path>
                    <path d="M22,4 L17.25,4 C17.1119288,4 17,3.88807119 17,3.75 L17,2.5 C17,1.11928813 15.8807119,0 14.5,0 L9.5,0 C8.11928813,0 7,1.11928813 7,2.5 L7,3.75 C7,3.81630412 6.97366079,3.8798926 6.9267767,3.9267767 C6.8798926,3.97366079 6.81630412,4 6.75,4 L2,4 C1.44771525,4 1,4.44771525 1,5 C1,5.55228475 1.44771525,6 2,6 L22,6 C22.5522847,6 23,5.55228475 23,5 C23,4.44771525 22.5522847,4 22,4 Z M9,3.75 L9,2.5 C9,2.22385763 9.22385763,2 9.5,2 L14.5,2 C14.7761424,2 15,2.22385763 15,2.5 L15,3.75 C15,3.88807119 14.8880712,4 14.75,4 L9.25,4 C9.11192881,4 9,3.88807119 9,3.75 Z" id="Shape"></path>
                </g>
            </g>
        </g>
    </g>
</svg>